<?xml version="1.0" standalone="no"?>
<!DOCTYPE svg PUBLIC "-//W3C//DTD SVG 20010904//EN"
 "http://www.w3.org/TR/2001/REC-SVG-20010904/DTD/svg10.dtd">
<svg version="1.0" xmlns="http://www.w3.org/2000/svg"
 width="468.000000pt" height="618.000000pt" viewBox="0 0 468.000000 618.000000"
 preserveAspectRatio="xMidYMid meet">

<g transform="translate(0.000000,618.000000) scale(0.100000,-0.100000)"
fill="#1677ff" stroke="none">
<path d="M10 5420 l0 -760 760 0 760 0 0 -1250 0 -1249 35 -98 c108 -302 336
-511 632 -579 110 -26 300 -23 408 5 302 80 519 297 595 595 20 77 20 109 20
1333 l0 1253 535 0 535 0 0 -1285 0 -1284 -34 -133 c-150 -580 -452 -1012
-906 -1295 -467 -290 -1078 -355 -1630 -173 -130 43 -345 148 -460 225 -432
288 -701 688 -837 1245 l-28 115 -2 908 -3 907 -196 0 -195 0 4 -917 3 -918
26 -115 c64 -287 113 -430 223 -655 344 -703 973 -1160 1745 -1270 151 -22
479 -25 620 -7 806 106 1452 562 1804 1272 113 228 189 459 236 722 19 108 20
155 20 1575 l0 1463 -920 0 -920 0 0 -1388 c0 -1530 4 -1425 -62 -1556 -35
-70 -115 -158 -176 -193 -179 -105 -385 -73 -532 83 -32 34 -69 86 -84 116
-59 122 -56 47 -56 1555 l0 1383 -765 0 -765 0 0 365 0 365 2140 0 2140 0 0
200 0 200 -2335 0 -2335 0 0 -760z"/>
</g>
</svg>
